<?xml version="1.0" encoding="utf-8"?>
<!-- Generator: Adobe Illustrator 24.0.2, SVG Export Plug-In . SVG Version: 6.00 Build 0)  -->
<svg version="1.1" id="Layer_1" xmlns="http://www.w3.org/2000/svg" xmlns:xlink="http://www.w3.org/1999/xlink" x="0px" y="0px"
	 viewBox="0 0 600 450" style="enable-background:new 0 0 600 450;" xml:space="preserve">
<style type="text/css">
	.st0{fill:#AD2124;}
	.st1{fill:#C1272D;}
	.st2{fill:#B34F58;}
	.st3{fill:#546263;}
	.st4{fill:none;}
	.st5{fill:#FFFFFF;}
</style>
<g>
	<g>
		<path class="st0" d="M118.86,403.81l-0.53,7.11c-2.87,1.63-6.71,2.44-11.52,2.44c-9.17,0-16.17-2.53-21.02-7.59
			c-4.85-5.06-7.27-11.17-7.27-18.32c0-7.57,2.55-14.09,7.64-19.54c5.1-5.45,11.84-8.18,20.23-8.18c4.21,0,7.64,0.42,10.3,1.27
			l-1.43,8.33c-3.72-1.38-7.49-2.07-11.31-2.07c-5.03,0-9.03,1.75-12,5.26c-2.97,3.5-4.46,7.89-4.46,13.17
			c0,5.73,1.77,10.51,5.31,14.33c3.54,3.82,8.55,5.73,15.02,5.73C110.47,405.77,114.15,405.12,118.86,403.81z"/>
		<path class="st0" d="M166.88,361.49l-2.39,8.44c-2.76-1.1-5.33-1.65-7.7-1.65c-6.65,0-10.97,3.17-12.95,9.5
			c0,16.28,0.11,27.66,0.32,34.14h-9.4c0.57-11.22,0.85-19.93,0.85-26.12c0-8.39-0.83-16.42-2.5-24.1l9.29-1.33
			c0.67,3.89,1.01,6.49,1.01,7.8h0.42c3.82-5.63,8.28-8.44,13.38-8.44C159.9,359.74,163.12,360.33,166.88,361.49z"/>
		<path class="st0" d="M227.26,385.17c0,9.06-2.6,16.13-7.8,21.21c-5.2,5.08-11.33,7.62-18.37,7.62c-6.58,0-12.24-2.25-16.96-6.74
			c-4.72-4.49-7.09-10.83-7.09-19.01c0-9.13,2.61-16.26,7.83-21.39c5.22-5.13,11.35-7.7,18.4-7.7c6.58,0,12.23,2.27,16.94,6.82
			C224.9,370.53,227.26,376.93,227.26,385.17z M218.07,387.03c0-5.52-1.39-10.43-4.17-14.73c-2.78-4.3-6.73-6.45-11.87-6.45
			c-5.1,0-9.02,2.04-11.76,6.11c-2.74,4.07-4.11,8.8-4.11,14.17c0,5.56,1.39,10.48,4.17,14.76c2.78,4.28,6.75,6.42,11.92,6.42
			c5.1,0,9.01-2.04,11.73-6.13C216.71,397.09,218.07,392.38,218.07,387.03z"/>
		<path class="st0" d="M318.91,361.49c0,2.12-3.04,10.45-9.1,24.98c-6.07,14.53-9.11,23.01-9.11,25.46h-7.22
			c0-1.34-1.79-6.49-5.36-15.45c-4.39-11.01-7.5-19.61-9.34-25.8h-0.42c-1.7,5.98-4.6,14.6-8.71,25.85
			c-3.26,8.92-4.88,14.05-4.88,15.4h-7.27c0-2.05-2.87-10.56-8.6-25.51c-5.73-14.95-8.6-23.26-8.6-24.93h9.45
			c0,1.84,2.06,8.57,6.18,20.17c4.12,11.61,6.18,18.37,6.18,20.28h0.58c0-2.9,2.13-9.9,6.4-21c4.26-11.1,6.4-17.58,6.4-19.46h9.03
			c0,1.63,2.21,8.41,6.64,20.33c4.42,11.93,6.64,18.63,6.64,20.12h0.53c0-2.16,1.92-8.75,5.76-19.78
			c3.84-11.02,5.76-17.92,5.76-20.68H318.91z"/>
		<path class="st0" d="M381.84,384.64c0,7.75-2.21,14.48-6.64,20.17c-4.42,5.7-10.48,8.55-18.16,8.55c-6.51,0-10.94-1.17-13.27-3.5
			h-0.42l-1.33,2.07h-7.8c0.46-12.21,0.69-25.41,0.69-39.6c0-12.81-0.58-24.51-1.75-35.09l10.51-0.53
			c-0.35,6.09-0.53,15.73-0.53,28.93h0.42c3.47-4,8.97-6,16.51-6c6.55,0,11.81,2.44,15.79,7.33
			C379.85,371.85,381.84,377.74,381.84,384.64z M372.39,385.92c0-5.34-1.4-9.86-4.19-13.54c-2.8-3.68-6.65-5.52-11.57-5.52
			c-6.37,0-10.94,1.93-13.7,5.79c0,12.6,0.28,22.81,0.85,30.63c2.87,2.41,6.6,3.61,11.2,3.61c5.8,0,10.16-2.04,13.06-6.11
			C370.94,396.71,372.39,391.76,372.39,385.92z"/>
		<path class="st0" d="M439.41,411.93l-8.33,0.32c-0.42-1.73-0.64-3.38-0.64-4.94h-0.53c-4.35,3.96-10.28,5.95-17.78,5.95
			c-4.07,0-7.57-1.19-10.51-3.58c-2.94-2.39-4.41-5.79-4.41-10.22c0-5.45,2.3-9.83,6.9-13.14c4.6-3.31,13.15-5.05,25.64-5.23
			c0.11-0.85,0.16-1.82,0.16-2.92c0-4.35-1.16-7.25-3.48-8.71c-2.32-1.45-5.83-2.18-10.54-2.18c-5.56,0-11.03,0.69-16.4,2.07
			l0.9-7.33c5.31-1.52,11.41-2.28,18.32-2.28c6.3,0,11.17,1.3,14.6,3.9c3.43,2.6,5.15,7.03,5.15,13.3c0,1.66-0.08,4.68-0.24,9.05
			c-0.16,4.37-0.24,7.28-0.24,8.73C437.98,401.17,438.46,406.9,439.41,411.93z M430.02,401.63c-0.18-5.38-0.27-10.21-0.27-14.49
			c-6.65,0-11.72,0.5-15.18,1.49c-5.8,1.77-8.71,5.15-8.71,10.14c0,4.81,3.4,7.22,10.19,7.22
			C421.89,405.98,426.55,404.53,430.02,401.63z"/>
		<path class="st0" d="M490.4,361.49l-2.39,8.44c-2.76-1.1-5.33-1.65-7.7-1.65c-6.65,0-10.97,3.17-12.95,9.5
			c0,16.28,0.11,27.66,0.32,34.14h-9.4c0.57-11.22,0.85-19.93,0.85-26.12c0-8.39-0.83-16.42-2.5-24.1l9.29-1.33
			c0.67,3.89,1.01,6.49,1.01,7.8h0.42c3.82-5.63,8.28-8.44,13.38-8.44C483.43,359.74,486.65,360.33,490.4,361.49z"/>
	</g>
	<g>
		<path class="st0" d="M399.03,323.85H171.82c-22.38,0-40.75-18.21-40.95-40.59l-1.93-216.5c-0.1-11.01,4.12-21.38,11.86-29.2
			c7.75-7.82,18.08-12.12,29.09-12.12h229.14c22.58,0,40.95,18.37,40.95,40.95v216.5C439.98,305.48,421.61,323.85,399.03,323.85z
			 M169.89,33.23c-8.92,0-17.28,3.49-23.56,9.82c-6.28,6.33-9.69,14.73-9.61,23.65l1.93,216.5c0.16,18.13,15.04,32.87,33.17,32.87
			h227.21c18.29,0,33.17-14.88,33.17-33.17V66.4c0-18.29-14.88-33.17-33.17-33.17H169.89z"/>
		<g>
			<path class="st0" d="M289.17,170.58c-1.25,1.6-2.7,2.99-4.38,4.15c-1.48,1.02-3.01,1.95-4.58,2.81c-1.69-2.55-3.39-5.1-5.11-7.64
				c-7.08-10.55-12.62-18.78-19.95-29.17c0,0-0.01-0.01-0.01-0.01l10.23-6.81L289.17,170.58z"/>
			<path class="st1" d="M278.45,178.47c-1.22,0.62-2.45,1.21-3.69,1.79c-2.1,0.97-4.22,1.88-6.35,2.74l-23.21-35.66l9.94-6.62
				c0,0,0.01,0.01,0.01,0.01c6.55,10.9,11.68,19.39,18.48,30.13C275.22,173.4,276.83,175.94,278.45,178.47z"/>
			<path class="st0" d="M353.3,268.93L353.3,268.93l-19.91,13.28h-0.01l-38.26-58.91c2.16-0.27,4.56-0.67,6.57-1.33
				c1.52-0.5,3.03-1.05,4.52-1.64c0,0,24.9,37.83,32.25,48.22c-6.54-10.92-30.19-49.07-30.19-49.07c3.3-1.41,6.51-3.05,9.6-4.92
				c0.14-0.08,0.28-0.17,0.41-0.25L353.3,268.93z"/>
			<path class="st2" d="M338.46,268.55c-7.35-10.39-14.5-20.91-21.58-31.47l-2.66-3.96l-2.64-3.97l-5.28-7.95l-1.92-2.93
				c-1.49,0.59-2.99,1.14-4.52,1.64c-2.02,0.67-4.18,1.06-6.34,1.33l-23.51-35.96c2.14-0.86,4.26-1.77,6.35-2.74
				c1.24-0.57,2.48-1.17,3.69-1.79c-1.62-2.53-3.23-5.06-4.83-7.6c-6.8-10.74-13.54-21.52-20.09-32.42
				c7.33,10.39,14.47,20.91,21.56,31.46c1.72,2.54,3.41,5.09,5.11,7.64c1.57-0.86,3.11-1.79,4.58-2.81
				c1.68-1.16,3.13-2.55,4.38-4.15l25.68,39.38c-0.14,0.08-0.27,0.17-0.41,0.25c-3.09,1.87-6.3,3.51-9.6,4.92l1.68,2.6l5.14,8.04
				l2.57,4.02l2.55,4.03C325.18,246.85,331.92,257.64,338.46,268.55z"/>
			<path class="st3" d="M396.91,284.52c0,3.96-3.2,7.17-7.16,7.17l-50.09,0.12l-6.27-9.6l19.91-13.27l0.07,0.09l37.99,8.5
				C394.6,278.29,396.91,281.19,396.91,284.52z"/>
			<line class="st4" x1="255.13" y1="140.72" x2="255.13" y2="140.71"/>
			<path class="st5" d="M338.46,268.55c-7.35-10.39-14.5-20.91-21.58-31.47l-2.66-3.96l-2.64-3.97l-5.28-7.95l-1.92-2.93
				l-8.54-13.02l-10.36-16.02c-1.81-2.83-3.62-5.65-5.43-8.48c-1.62-2.53-3.23-5.06-4.83-7.6c-6.8-10.74-13.54-21.52-20.09-32.42
				c7.33,10.39,14.47,20.91,21.56,31.46c1.72,2.54,3.41,5.09,5.11,7.64c1.83,2.75,3.64,5.5,5.47,8.24l10.47,15.94l8.69,13.41
				l1.68,2.6l5.14,8.04l2.57,4.02l2.55,4.03C325.18,246.85,331.92,257.64,338.46,268.55z"/>
			<path class="st3" d="M344.88,189.09c-0.69,1.14-1.65,2.02-2.7,2.82c-1.89,1.44-3.82,2.83-5.66,4.33
				c-4.64,3.79-9.25,7.62-13.86,11.44c-1.98,1.64-4.03,3.2-6.22,4.57c-0.14,0.08-0.27,0.17-0.41,0.25c-3.09,1.87-6.3,3.51-9.6,4.92
				c-0.34,0.15-0.68,0.29-1.02,0.43h0c-0.34,0.14-0.68,0.28-1.03,0.42c-1.49,0.59-2.99,1.14-4.52,1.64
				c-2.02,0.67-4.18,1.06-6.34,1.33c-1.11,0.14-2.22,0.24-3.31,0.33c-1.25,0.1-2.9-0.47-3.95-0.83c-0.9-0.31-5.85-4.01-6.16-5.19
				c-0.18-0.67,5.86-0.43,6.06-3.04c-4.19,1.46-6.87,1.33-7.34,1.11c-2.87-1.31-4.87-3.14-5.08-6.33c0.04,0.63,6.12-2.73,6.02-3.75
				c-0.07-0.03-6.2,2.86-7.87,2.1c-2.93-1.33-4.23-3.42-4.55-6.58c0-0.25,7.53-4.01,7.53-4.18c-0.58-0.39-8.69,2.82-9.17,2.45
				c-1.16-0.87-2.08-1.95-2.59-3.32c-0.12-0.33-0.15-0.7-0.2-1.05c-0.05-0.35-0.06-0.71-0.11-1.06c-0.02-0.18-0.12-0.35-0.11-0.53
				c0.18-3.57,1.95-3.79,1.95-4.03c1.8-0.67,3.58-1.36,5.36-2.07c2.14-0.86,4.26-1.77,6.35-2.74c1.24-0.57,2.48-1.17,3.69-1.79
				c0.3-0.15,0.59-0.3,0.88-0.46c0.29-0.16,0.58-0.31,0.87-0.47c1.57-0.86,3.11-1.79,4.58-2.81c1.68-1.16,3.13-2.55,4.38-4.15
				c0.15-0.19,0.29-0.38,0.44-0.57c0.5-0.68,0.49-1.39,0.2-2.12c-0.15-0.37-0.37-0.74-0.63-1.03c-0.48-0.54-1.03-1.01-1.55-1.52
				c-0.42-0.41-0.87-0.8-1.25-1.24c-0.81-0.95-0.97-2.07-0.38-3c0.28-0.45,0.69-0.84,1.12-1.16c1.1-0.82,2.39-1.16,3.72-1.37
				c2.3-0.36,4.59-0.25,6.88,0.13c1.9,0.32,3.75,0.82,5.62,1.29c0.36,0.09,0.72,0.18,1.08,0.26c1.79,0.43,3.6,0.82,5.4,1.23
				c0.18,0.04,0.35,0.09,0.6,0.15c-0.02,0.01-0.03,0.02-0.05,0.03c3.96,0.59,9.17,0.68,13.22-1.68l0.05,0.08c0,0,0,0,0.01,0
				c1.23-0.65,2.5-1.03,3.91-0.67c0.83,0.22,1.53,0.65,2.17,1.2c1.24,1.08,2.23,2.38,3.07,3.77c1.31,2.17,2.58,4.36,3.86,6.54
				c2.2,3.74,4.4,7.48,6.59,11.23c0.19,0.33,0.38,0.67,0.51,1.03C345.82,186.75,345.56,187.95,344.88,189.09z"/>
			<g>
				<path class="st3" d="M266.7,134.8l-19.87,14.63c0,0-17.74-23.03-8.45-47.87c1.96-5.25-14.08-5.74-14.08-5.74L191,95.27
					l-3.73-4.44l34.26-11.39l-39.34,2.28c0,0-3.87-4.76-3.87-4.76c21.03-9.35,49.06-14.33,70.53-3.36
					c11.4,5.83,18.46,17.34,15.75,30.16c-1.29,6.07-4.75,11.91-7,15.27L266.7,134.8z"/>
			</g>
		</g>
	</g>
</g>
</svg>
